<!--?xml version="1.0" standalone="no"?--><svg version="1.0" xmlns="http://www.w3.org/2000/svg" width="300.000000pt" height="290.000000pt" viewBox="0 0 300.000000 290.000000" preserveAspectRatio="xMidYMid meet">
<metadata>
  <rdf:rdf xmlns:rdf="http://www.w3.org/1999/02/22-rdf-syntax-ns#" xmlns:rdfs="http://www.w3.org/2000/01/rdf-schema#" xmlns:dc="http://purl.org/dc/elements/1.1/">
    <rdf:description dc:title="yamaha" dc:publisher="Hiox" dc:date="2015-04-18" dc:format="image/svg+xml" dc:language="en">
      <dc:creator>
        <rdf:bag>
          <rdf:li>svgimages.com</rdf:li>
        </rdf:bag>
      </dc:creator>
    </rdf:description>
  </rdf:rdf>
</metadata>
<g transform="translate(0.000000,290.000000) scale(0.100000,-0.100000)" fill="#11156C" stroke="none">
<path d="M1255 2829 c-106 -22 -147 -33 -230 -61 -196 -64 -367 -171 -525
-328 -58 -58 -128 -138 -154 -179 -72 -108 -150 -267 -181 -368 -15 -48 -29
-95 -32 -103 -41 -131 -48 -414 -14 -577 117 -565 528 -974 1096 -1092 177
-37 447 -27 631 24 229 63 491 224 649 397 114 126 233 330 283 488 52 160 65
247 65 425 0 148 -3 184 -26 280 -82 348 -224 591 -462 792 -187 157 -401 254
-655 298 -93 16 -378 19 -445 4z m370 -44 c186 -26 298 -57 415 -114 275 -136
471 -324 598 -576 70 -140 79 -164 122 -322 41 -154 51 -360 25 -513 -83 -485
-367 -833 -840 -1030 -119 -49 -337 -90 -482 -90 -86 0 -286 30 -338 50 -11 4
-40 13 -64 20 -39 10 -148 55 -191 78 -8 5 -35 19 -60 33 -25 13 -51 30 -58
37 -7 6 -17 12 -22 12 -5 0 -15 6 -22 13 -7 7 -29 24 -48 37 -59 41 -170 149
-232 225 -105 129 -213 358 -249 525 -17 82 -39 254 -39 311 0 77 26 241 58
359 23 86 105 267 152 335 17 24 30 48 30 53 0 6 3 12 8 14 4 2 26 28 49 58
156 203 444 390 693 448 25 6 59 14 75 18 57 14 200 31 260 32 33 1 105 -5
160 -13z" id="node1" class="node"></path>
<path d="M1325 2630 c-93 -12 -290 -72 -374 -114 -325 -164 -549 -460 -627
-828 -23 -111 -23 -343 0 -448 109 -489 465 -830 961 -921 89 -16 312 -16 390
0 174 36 325 97 450 182 318 215 497 532 512 910 9 216 -22 365 -118 567 -158
335 -464 569 -829 637 -107 20 -274 27 -365 15z m76 -405 c4 -71 7 -212 8
-312 l1 -182 28 -20 c28 -20 29 -20 61 0 l32 19 -2 313 -2 312 60 3 60 3 6
-158 c4 -87 7 -211 7 -275 0 -65 2 -118 5 -118 3 0 30 14 61 31 72 41 130 52
211 39 81 -13 110 -1 140 59 28 55 25 52 70 61 291 59 283 58 283 34 0 -29
-197 -264 -221 -264 -5 0 -18 5 -31 11 -17 7 -32 6 -59 -5 -35 -15 -50 -37
-63 -96 -10 -49 -67 -119 -127 -157 -32 -21 -57 -42 -56 -46 1 -5 32 -25 67
-44 36 -20 121 -68 190 -107 69 -39 142 -80 164 -91 21 -11 40 -26 43 -32 7
-17 -45 -103 -61 -103 -8 0 -92 44 -187 98 -96 54 -203 114 -239 134 -36 19
-75 41 -86 48 -16 10 -31 11 -55 4 -30 -9 -34 -14 -37 -48 -3 -39 5 -51 58
-78 14 -7 36 -20 50 -29 14 -9 65 -37 114 -63 84 -45 163 -88 231 -129 17 -9
45 -25 63 -34 17 -9 32 -20 32 -24 0 -20 -54 -99 -68 -99 -10 0 -39 13 -67 28
-239 135 -398 222 -406 222 -5 0 -9 -31 -9 -69 0 -83 -20 -135 -79 -206 -51
-62 -54 -96 -11 -150 17 -21 30 -40 30 -42 0 -3 -23 -72 -51 -154 -62 -180
-73 -187 -115 -76 -15 39 -38 99 -51 131 -29 75 -29 113 -1 143 37 40 31 91
-19 147 -57 65 -76 109 -82 196 -5 58 -9 74 -20 72 -8 -2 -68 -36 -133 -75
-65 -40 -126 -76 -136 -82 -10 -5 -54 -31 -98 -57 -44 -27 -87 -48 -95 -48
-18 1 -73 90 -62 101 4 4 46 31 93 59 83 52 111 68 188 111 20 12 49 30 64 40
14 11 28 19 31 19 2 0 39 21 81 46 79 48 97 74 77 112 -6 10 -23 24 -38 31
-26 11 -41 3 -241 -116 -117 -71 -220 -132 -230 -138 -9 -5 -34 -20 -53 -32
-20 -13 -39 -23 -41 -23 -11 0 -58 80 -58 98 0 10 12 25 28 33 15 8 46 26 68
42 23 15 46 27 52 27 6 0 12 3 14 8 3 7 105 72 113 72 12 0 177 108 177 116 0
5 -17 18 -37 29 -85 48 -125 99 -165 211 -15 42 -78 73 -116 56 -14 -7 -28
-12 -32 -12 -12 0 -54 41 -122 120 -36 41 -73 84 -82 94 -10 11 -18 28 -18 38
0 15 8 18 44 18 25 0 66 -4 93 -10 214 -43 201 -39 208 -70 3 -16 18 -41 33
-55 26 -26 30 -27 92 -20 123 14 151 12 224 -23 37 -17 72 -32 77 -32 6 0 7
104 3 259 -4 142 -4 266 -1 275 6 14 18 16 64 14 l58 -3 6 -130z" id="node2" class="node"></path>
<path d="M1805 1741 c-14 -13 -97 -61 -118 -68 -41 -13 -31 -87 15 -111 23
-13 32 -9 114 40 95 58 108 78 83 124 -9 19 -21 24 -49 24 -20 0 -40 -4 -45
-9z" id="node3" class="node"></path>
<path d="M1042 1728 c-15 -15 -15 -58 1 -78 19 -24 156 -100 180 -100 36 1 57
24 57 62 0 28 -6 37 -27 49 -15 8 -52 29 -82 47 -56 33 -108 41 -129 20z" id="node4" class="node"></path>
<path d="M1427 1525 c-39 -37 -37 -77 6 -109 41 -32 43 -32 81 -2 28 21 31 29
28 62 -3 33 -9 42 -38 57 -44 22 -44 22 -77 -8z" id="node5" class="node"></path>
<path d="M1436 1225 c-17 -13 -19 -27 -18 -117 2 -113 13 -138 63 -138 46 0
59 31 59 137 0 80 -3 96 -20 113 -23 23 -57 25 -84 5z" id="node6" class="node"></path>
</g>
<g transform="translate(0.000000,290.000000) scale(0.100000,-0.100000)" fill="#A1A4CA" stroke="none">



</g>
</svg>