<svg width="23" height="19" xmlns="http://www.w3.org/2000/svg" viewBox="0 0 64 54"><title>pic</title><path d="M1744.84,912.09l-5.56-10.4h0a1.91,1.91,0,0,0-.27-.4,2,2,0,0,0-2.82-.15l-8.7,7.83a2,2,0,1,0,2.68,3l4.23-3.81a22.25,22.25,0,0,1-42.15,1.39,2,2,0,1,0-3.73,1.45,26.32,26.32,0,0,0,24.57,17,26.61,26.61,0,0,0,25.37-19.39l2.87,5.37a2,2,0,1,0,3.53-1.88Z" transform="translate(-1681.08 -874)" style="fill:#231f20"/><path d="M1690,900.85l8.7-7.83a2,2,0,0,0-2.68-3l-4.23,3.81a22.25,22.25,0,0,1,42.15-1.39,2,2,0,0,0,3.73-1.45,26.32,26.32,0,0,0-24.57-17,26.6,26.6,0,0,0-25.37,19.39l-2.87-5.37a2,2,0,0,0-3.53,1.88l5.56,10.4h0a2,2,0,0,0,.27.4A2,2,0,0,0,1690,900.85Z" transform="translate(-1681.08 -874)" style="fill:#231f20"/></svg>
