<svg width="" height="" xmlns="http://www.w3.org/2000/svg" viewBox="0 0 64 52"><title>key-icon</title><path d="M5177,1123h44a2,2,0,0,0,0-4h-44a2,2,0,0,0,0,4Z" transform="translate(-5159 -1115)" style="fill:#231f20"/><path d="M5221,1139h-44a2,2,0,0,0,0,4h44a2,2,0,0,0,0-4Z" transform="translate(-5159 -1115)" style="fill:#231f20"/><path d="M5221,1159h-44a2,2,0,0,0,0,4h44a2,2,0,0,0,0-4Z" transform="translate(-5159 -1115)" style="fill:#231f20"/><path d="M5169,1135h-8a2,2,0,0,0-2,2v8a2,2,0,0,0,2,2h8a2,2,0,0,0,2-2v-8A2,2,0,0,0,5169,1135Zm-2,8h-4v-4h4Z" transform="translate(-5159 -1115)" style="fill:#231f20"/><path d="M5169,1115h-8a2,2,0,0,0-2,2v8a2,2,0,0,0,2,2h8a2,2,0,0,0,2-2v-8A2,2,0,0,0,5169,1115Zm-2,8h-4v-4h4Z" transform="translate(-5159 -1115)" style="fill:#231f20"/><path d="M5169,1155h-8a2,2,0,0,0-2,2v8a2,2,0,0,0,2,2h8a2,2,0,0,0,2-2v-8A2,2,0,0,0,5169,1155Zm-2,8h-4v-4h4Z" transform="translate(-5159 -1115)" style="fill:#231f20"/></svg>
