<svg xmlns="http://www.w3.org/2000/svg" viewBox="0 0 61.76 61.76"><title>Ресурс 1</title><g id="Слой_2" data-name="Слой 2"><g id="Слой_1-2" data-name="Слой 1"><path d="M30.88,0A30.88,30.88,0,1,0,61.76,30.88,30.88,30.88,0,0,0,30.88,0ZM56.16,45.57a.6.6,0,0,1-.54.3h-.06L51.45,45a24.91,24.91,0,0,1-41.18,0l-4.07.92h0a.61.61,0,0,1-.62-.3.66.66,0,0,1,0-.69l.06-.06,2.82-3.08A24.94,24.94,0,0,1,29,6.07l1.29-4h0a.61.61,0,0,1,.57-.38.63.63,0,0,1,.57.37h0l1.29,4A24.92,24.92,0,0,1,53.32,41.73l2.82,3.12h0A.66.66,0,0,1,56.16,45.57Z" style="fill:#fff"/><path d="M55.64,45.06l-6.26-6.7a3.1,3.1,0,0,1-4.08-1.6h0a3.28,3.28,0,0,1-.24-.88h0a4.68,4.68,0,0,0-2.31-3.51L40.21,30.9l11.31-6.54L50.28,22.2,37.71,29.47l-2.18-1.26V25.67l12.57-7.2-1.25-2.16L35.53,22.84v-3a4.64,4.64,0,0,0-1.86-3.74h0A3.11,3.11,0,0,1,33,11.78h0a3.18,3.18,0,0,1,.63-.64L31,2.36a.16.16,0,0,0-.21-.09h0a.2.2,0,0,0-.09.09L28,11.13a3.12,3.12,0,0,1,0,5h0a4.67,4.67,0,0,0-1.88,3.77v2.92L14.84,16.29l-1.25,2.18,12.57,7.25v2.52L24,29.47,11.4,22.22l-1.24,2.14,11.31,6.53L19,32.36a4.69,4.69,0,0,0-2.31,3.49h0a3.13,3.13,0,0,1-3.46,2.75,3.31,3.31,0,0,1-.87-.24l-6.26,6.7a.15.15,0,0,0,0,.18.12.12,0,0,0,.15.08h0l8.91-2.07a3.11,3.11,0,0,1,3.41-2.78h0a3,3,0,0,1,.88.23h0a4.59,4.59,0,0,0,4.17-.25L26.16,39V52h2.49V37.57l2.21-1.21L33,37.62v14.5h2.49V39l2.54,1.45a4.59,4.59,0,0,0,4.17.26h0a3.1,3.1,0,0,1,4.08,1.61h0a3,3,0,0,1,.24.89l8.93,2.12a.12.12,0,0,0,.16-.05v0a.13.13,0,0,0,0-.18h0ZM30.86,33.47l-2.18-1.26V29.69l2.18-1.3L33,29.65v2.52ZM28.68,19.93a2.18,2.18,0,0,1,4.36,0h0v4.36l-2.18,1.26-2.18-1.26ZM22.4,38.39a2.18,2.18,0,0,1-2.18-3.78L24,32.36l2.16,1.26v2.51Zm19.89-.8a2.17,2.17,0,0,1-2.95.85l-.05,0h0l-3.78-2.18V33.71l2.2-1.3,3.79,2.18a2.19,2.19,0,0,1,.79,3Z" style="fill:#fff"/><path d="M55.65,45.06l-6.26-6.7a3.31,3.31,0,0,1-.87.24,3.13,3.13,0,0,1-3.46-2.75h0a4.69,4.69,0,0,0-2.31-3.49l-2.49-1.47,11.31-6.53-1.26-2.13L37.74,29.47l-2.17-1.26V25.69l12.56-7.22-1.25-2.16L35.57,22.84V19.92a4.67,4.67,0,0,0-1.88-3.77h0a3.12,3.12,0,0,1,0-5L31,2.38a.16.16,0,0,0-.3,0l-2.66,8.77a3.18,3.18,0,0,1,.63.64,3.11,3.11,0,0,1-.62,4.35h0a4.64,4.64,0,0,0-1.86,3.74v2.92L14.88,16.28l-1.25,2.19L26.2,25.72v2.52L24,29.47,11.45,22.22l-1.24,2.16,11.31,6.54L19,32.36a4.68,4.68,0,0,0-2.31,3.51h0a3.28,3.28,0,0,1-.24.88,3.1,3.1,0,0,1-4.08,1.62h0L6,45.11a.15.15,0,0,0,0,.18.12.12,0,0,0,.15.08h0l8.93-2.12a3,3,0,0,1,.23-.88,3.12,3.12,0,0,1,4.09-1.63h0a4.59,4.59,0,0,0,4.2-.26L26.2,39v13.1h2.49V37.61l2.18-1.25,2.2,1.22v14.5h2.5V39l2.51,1.45a4.59,4.59,0,0,0,4.17.26h0a3.42,3.42,0,0,1,.9-.24,3.11,3.11,0,0,1,3.42,2.74L55.5,45.3a.12.12,0,0,0,.16-.05v0A.14.14,0,0,0,55.65,45.06ZM30.87,33.4l-2.18-1.26V29.62l2.18-1.26L33,29.66v2.52ZM28.69,19.9h0a2.18,2.18,0,1,1,4.36,0h0v4.36l-2.18,1.26-2.18-1.26ZM22.42,38.36a2.2,2.2,0,0,1-2.19-3.82h0L24,32.36l2.19,1.26v2.51Zm19.09-3.78a2.18,2.18,0,0,1-2.18,3.78l-3.76-2.22V33.62l2.15-1.26,3.79,2.18Z" style="fill:#fff"/></g></g></svg>
