<svg width="" height="" xmlns="http://www.w3.org/2000/svg" viewBox="0 0 64 60"><title>specs-icon</title><path d="M3980.8,5127h-60a2,2,0,0,0,0,4h60a2,2,0,1,0,0-4Z" transform="translate(-3918.8 -5071)" style="fill:#231f20"/><path d="M3924.8,5107a6,6,0,0,0,1.3-.14l6,8.42a6,6,0,1,0,8.86-.58l7.35-25.72.48,0a6,6,0,0,0,1.35-.16l7.92,10.48a6,6,0,1,0,9.31-.19l8.29-16.24a5.94,5.94,0,0,0,1.13.11,6,6,0,1,0-4.58-2.13l-8.29,16.24a6.1,6.1,0,0,0-1.12-.11,6,6,0,0,0-1.35.16l-7.92-10.48a6,6,0,1,0-8.9.63l-7.35,25.72-.48,0a6,6,0,0,0-1.29.14l-6-8.42a6,6,0,1,0-4.69,2.27Zm38-2a2,2,0,1,1,2-2A2,2,0,0,1,3962.8,5105Zm14-30a2,2,0,1,1-2,2A2,2,0,0,1,3976.8,5075Zm-28,6a2,2,0,1,1-2,2A2,2,0,0,1,3948.8,5081Zm-12,40a2,2,0,0,1-2-2,2,2,0,0,1,.48-1.29l.81-.58a2,2,0,0,1,.71-.14,2,2,0,1,1,0,4Zm-12-22a2,2,0,0,1,2,2,2,2,0,0,1-.48,1.29l-.81.58a2,2,0,1,1-.71-3.86Z" transform="translate(-3918.8 -5071)" style="fill:#231f20"/></svg>
